<svg width="100" height="123" viewBox="0 0 100 123" fill="none" xmlns="http://www.w3.org/2000/svg">
<path d="M73.6023 0C73.8878 0 74.1732 0 74.4749 0C75.1751 8.65022 71.8733 15.1136 67.8606 19.7942C63.9233 24.4425 58.5317 28.9508 49.8115 28.2667C49.2298 19.7404 52.5369 13.7563 56.5442 9.0865C60.2607 4.73446 67.0742 0.86179 73.6023 0Z" fill="white"/>
<path d="M100 90.0356C100 90.1218 100 90.1972 100 90.278C97.5493 97.7002 94.0536 104.061 89.7878 109.965C85.8936 115.324 81.1214 122.536 72.6005 122.536C65.2375 122.536 60.3469 117.801 52.8008 117.672C44.8185 117.543 40.4287 121.631 33.1305 122.66C32.2956 122.66 31.4607 122.66 30.642 122.66C25.2828 121.884 20.9577 117.64 17.8067 113.816C8.51556 102.515 1.33578 87.9189 0 69.2396C0 67.4083 0 65.5823 0 63.751C0.56555 50.3825 7.06129 39.5132 15.6954 34.2455C20.2521 31.4447 26.5162 29.0586 33.4913 30.125C36.4807 30.5883 39.5346 31.6116 42.2116 32.6242C44.7485 33.5991 47.9209 35.3281 50.9264 35.2365C52.9624 35.1773 54.9876 34.1162 57.0398 33.3675C63.0507 31.1969 68.9432 28.7085 76.7101 29.8773C86.0444 31.2885 92.6694 35.4358 96.7629 41.8346C88.8667 46.8599 82.6242 54.4329 83.6906 67.3652C84.6386 79.1125 91.4683 85.9852 100 90.0356Z" fill="white"/>
</svg>
