<svg width="90" height="195" viewBox="0 0 90 195" fill="none" xmlns="http://www.w3.org/2000/svg">
  <path fill-rule="evenodd" clip-rule="evenodd" d="M85.8969 194.997C86.9848 194.997 88.0282 194.547 88.7976 193.745C89.567 192.944 89.9995 191.857 90 190.723V170.767C90 169.633 89.5677 168.546 88.7982 167.744C88.0288 166.942 86.9851 166.491 85.8969 166.491H54.1642V107.193C54.1642 106.059 53.7319 104.971 52.9624 104.169C52.1929 103.368 51.1493 102.917 50.0611 102.917H30.9129C29.8247 102.917 28.7811 103.368 28.0116 104.169C27.2421 104.971 26.8098 106.059 26.8098 107.193V190.724C26.8098 191.858 27.2421 192.946 28.0116 193.748C28.7811 194.549 29.8247 195 30.9129 195H85.8969V194.997ZM41.0342 22.8069C37.2468 22.8067 33.5445 23.977 30.3953 26.1697C27.2461 28.3624 24.7916 31.4792 23.3421 35.1257C21.8926 38.7723 21.5133 42.7849 22.252 46.6561C22.9908 50.5274 24.8145 54.0834 27.4925 56.8744C30.1705 59.6655 33.5826 61.5662 37.2972 62.3363C41.0118 63.1064 44.862 62.7113 48.3611 61.2009C51.8602 59.6904 54.851 57.1326 56.9551 53.8507C59.0593 50.5689 60.1824 46.7104 60.1824 42.7634C60.1824 37.4707 58.165 32.3949 54.5741 28.6523C50.9831 24.9098 46.1127 22.8071 41.0342 22.8069V22.8069ZM41.0342 1.02907e-08C32.9185 -0.000185497 24.9851 2.50769 18.2371 7.20647C11.4891 11.9053 6.2296 18.5839 3.12375 26.3979C0.0178994 34.2119 -0.794825 42.8102 0.788352 51.1055C2.37153 59.4009 6.2795 67.0207 12.0181 73.0013C17.7566 78.982 25.0681 83.0549 33.0278 84.705C40.9875 86.3551 49.2379 85.5083 56.7358 82.2717C64.2338 79.0351 70.6423 73.554 75.1512 66.5215C79.66 59.4891 82.0666 51.2212 82.0666 42.7634C82.0666 31.422 77.7436 20.5451 70.0485 12.5254C62.3535 4.50577 51.9167 0.000248763 41.0342 1.02907e-08V1.02907e-08Z" fill="white"/>
</svg>