<svg width="250" height="250" viewBox="0 0 250 250" fill="none" xmlns="http://www.w3.org/2000/svg">
<rect width="250" height="250" rx="50" fill="#141414"/>
<path fill-rule="evenodd" clip-rule="evenodd" d="M147.721 179.332C148.325 179.332 148.905 179.082 149.332 178.636C149.759 178.191 150 177.587 150 176.957V165.871C150 165.241 149.76 164.637 149.332 164.191C148.905 163.746 148.325 163.495 147.721 163.495H130.091V130.552C130.091 129.922 129.851 129.317 129.424 128.872C128.996 128.426 128.416 128.176 127.812 128.176H117.174C116.569 128.176 115.989 128.426 115.562 128.872C115.135 129.317 114.894 129.922 114.894 130.552V176.958C114.894 177.588 115.135 178.192 115.562 178.638C115.989 179.083 116.569 179.333 117.174 179.333H147.721V179.332ZM122.797 83.6705C120.693 83.6704 118.636 84.3205 116.886 85.5387C115.137 86.7569 113.773 88.4884 112.968 90.5143C112.163 92.5401 111.952 94.7694 112.362 96.9201C112.773 99.0708 113.786 101.046 115.274 102.597C116.761 104.147 118.657 105.203 120.721 105.631C122.784 106.059 124.923 105.84 126.867 105C128.811 104.161 130.473 102.74 131.642 100.917C132.811 99.0938 133.435 96.9502 133.435 94.7574C133.435 91.8171 132.314 88.9972 130.319 86.918C128.324 84.8388 125.618 83.6706 122.797 83.6705V83.6705ZM122.797 71C118.288 70.9999 113.881 72.3932 110.132 75.0036C106.383 77.614 103.461 81.3244 101.735 85.6655C100.01 90.0066 99.5584 94.7834 100.438 99.392C101.318 104 103.489 108.234 106.677 111.556C109.865 114.879 113.927 117.142 118.349 118.058C122.771 118.975 127.354 118.505 131.52 116.706C135.685 114.908 139.246 111.863 141.751 107.956C144.256 104.05 145.593 99.4562 145.593 94.7574C145.593 88.4567 143.191 82.4139 138.916 77.9586C134.641 73.5032 128.843 71.0001 122.797 71V71Z" fill="white"/>
</svg>
