<svg width="100" height="81" viewBox="0 0 100 81" fill="none" xmlns="http://www.w3.org/2000/svg">
<path d="M11.1538 69.1863C8.78948 69.1863 7.19852 71.0424 7.19852 73.4289C7.19852 75.8153 8.78948 77.6715 11.1538 77.6715C13.5182 77.6715 15.1092 75.8153 15.1092 73.4289C15.0871 71.0424 13.4961 69.1863 11.1538 69.1863V69.1863ZM10.6235 66.5568C12.5238 66.5568 14.1148 67.5291 14.8661 68.5897V66.822H17.7829V80.0579H15.529C15.3534 80.0574 15.185 79.9874 15.0608 79.8632C14.9366 79.739 14.8666 79.5707 14.8661 79.395V78.2902C14.1148 79.3508 12.5459 80.3231 10.6235 80.3231C6.99965 80.3231 4.23755 77.2295 4.23755 73.451C4.23755 69.6724 6.97755 66.5568 10.6235 66.5568V66.5568ZM21.0974 66.822H24.0142V68.6118C24.8097 67.286 26.3122 66.5568 28.0358 66.5568C31.1072 66.5568 33.0959 68.7223 33.0959 72.081V80.0579H30.8642C30.6885 80.0574 30.5202 79.9874 30.396 79.8632C30.2718 79.739 30.2018 79.5707 30.2013 79.395V72.5671C30.2013 70.4679 29.1406 69.2084 27.4392 69.2084C25.5167 69.2084 24.0142 70.711 24.0142 73.5394V80.0579H21.7824C21.6067 80.0574 21.4384 79.9874 21.3142 79.8632C21.19 79.739 21.12 79.5707 21.1195 79.395L21.0974 66.822ZM42.2882 69.1863C39.9239 69.1863 38.3329 71.0424 38.3329 73.4289C38.3329 75.8153 39.9239 77.6715 42.2882 77.6715C44.6526 77.6715 46.2435 75.8153 46.2435 73.4289C46.2435 71.0424 44.6526 69.1863 42.2882 69.1863ZM41.7579 66.5568C43.6582 66.5568 45.2492 67.5291 46.0005 68.5897V60.1929H48.9172V80.0579H46.6855C46.5098 80.0574 46.3415 79.9874 46.2173 79.8632C46.0931 79.739 46.0231 79.5707 46.0226 79.395V78.2902C45.2713 79.3508 43.7024 80.3231 41.78 80.3231C38.1561 80.3231 35.394 77.2295 35.394 73.451C35.394 69.6724 38.134 66.5568 41.7579 66.5568V66.5568ZM52.2318 66.822H55.1485V69.1863C55.4047 68.4627 55.8769 67.8351 56.5013 67.3885C57.1257 66.942 57.8722 66.6979 58.6398 66.6894C59.0185 66.6823 59.3967 66.7194 59.7668 66.7999V69.7829C59.2965 69.6254 58.8043 69.5433 58.3084 69.5399C56.6511 69.5399 55.1264 70.9541 55.1264 73.5836V80.0358H52.8947C52.719 80.0353 52.5507 79.9653 52.4265 79.8411C52.3023 79.7169 52.2323 79.5486 52.2318 79.3729V66.822ZM67.6111 77.6052C69.9313 77.6052 71.5885 75.7711 71.5885 73.4289C71.5885 71.0645 69.9534 69.2526 67.6111 69.2526C65.2468 69.2526 63.6116 71.0866 63.6116 73.4289C63.6337 75.7932 65.2468 77.6052 67.6111 77.6052ZM67.6111 80.3231C66.2516 80.3122 64.9258 79.899 63.8009 79.1356C62.6759 78.3722 61.8022 77.2927 61.29 76.0334C60.7778 74.774 60.65 73.3912 60.9227 72.0593C61.1954 70.7274 61.8564 69.5061 62.8223 68.5494C63.7882 67.5927 65.0158 66.9434 66.3503 66.6835C67.6848 66.4236 69.0663 66.5647 70.3207 67.089C71.575 67.6133 72.646 68.4973 73.3986 69.6295C74.1512 70.7617 74.5517 72.0915 74.5495 73.451C74.5541 74.3603 74.3772 75.2614 74.0293 76.1016C73.6814 76.9418 73.1695 77.7041 72.5234 78.344C71.8773 78.9839 71.1101 79.4886 70.2666 79.8284C69.4231 80.1682 68.5204 80.3364 67.6111 80.3231V80.3231ZM76.9139 66.822H79.8306V80.0579H77.5989C77.4232 80.0574 77.2549 79.9874 77.1307 79.8632C77.0065 79.739 76.9365 79.5707 76.936 79.395L76.9139 66.822ZM78.3723 63.9273C77.8522 63.9224 77.3548 63.7136 76.9871 63.3459C76.6193 62.9781 76.4105 62.4807 76.4056 61.9607C76.4161 61.4464 76.628 60.9568 76.9958 60.5973C77.3636 60.2377 77.8579 60.037 78.3723 60.0382C78.888 60.0382 79.3826 60.2431 79.7472 60.6078C80.1119 60.9725 80.3168 61.467 80.3168 61.9828C80.3168 62.4985 80.1119 62.9931 79.7472 63.3577C79.3826 63.7224 78.888 63.9273 78.3723 63.9273V63.9273ZM89.1334 69.1863C86.769 69.1863 85.1781 71.0424 85.1781 73.4289C85.1781 75.8153 86.769 77.6715 89.1334 77.6715C91.4977 77.6715 93.0887 75.8153 93.0887 73.4289C93.0445 71.0424 91.4977 69.1863 89.1334 69.1863ZM88.6031 66.5568C90.5034 66.5568 92.0944 67.5291 92.8456 68.5897V60.1929H95.7624V80.0579H93.5306C93.355 80.0574 93.1867 79.9874 93.0625 79.8632C92.9383 79.739 92.8683 79.5707 92.8677 79.395V78.2902C92.1164 79.3508 90.5476 80.3231 88.6252 80.3231C85.0013 80.3231 82.2392 77.2295 82.2392 73.451C82.2392 69.6724 84.9792 66.5568 88.6031 66.5568" fill="white"/>
<path d="M72.4282 15.7784L80.0516 2.58665C80.256 2.22368 80.3092 1.79479 80.1997 1.39285C80.0903 0.990909 79.8269 0.648258 79.4666 0.439078C79.1064 0.229897 78.6782 0.171021 78.2749 0.275196C77.8715 0.37937 77.5255 0.638213 77.3116 0.995685L69.5998 14.3421C63.444 11.5747 56.7713 10.1438 50.022 10.1438C43.2728 10.1438 36.6001 11.5747 30.4443 14.3421L22.7325 0.995685C22.5186 0.638213 22.1726 0.37937 21.7692 0.275196C21.3659 0.171021 20.9377 0.229897 20.5775 0.439078C20.2172 0.648258 19.9538 0.990909 19.8444 1.39285C19.7349 1.79479 19.7881 2.22368 19.9925 2.58665L27.6159 15.7784C14.4684 22.8936 5.54126 36.1295 4.23755 51.752H95.7182C94.4144 36.1295 85.4653 22.8936 72.4282 15.7784ZM28.9417 38.7149C28.19 38.7149 27.4552 38.492 26.8302 38.0743C26.2052 37.6567 25.7181 37.0631 25.4304 36.3687C25.1427 35.6742 25.0675 34.91 25.2141 34.1728C25.3608 33.4355 25.7227 32.7583 26.2543 32.2268C26.7858 31.6952 27.463 31.3333 28.2003 31.1866C28.9375 31.04 29.7017 31.1152 30.3962 31.4029C31.0907 31.6905 31.6842 32.1777 32.1019 32.8027C32.5195 33.4277 32.7424 34.1625 32.7424 34.9142C32.7424 35.9222 32.342 36.8889 31.6292 37.6017C30.9164 38.3144 29.9497 38.7149 28.9417 38.7149V38.7149ZM71.0582 38.7149C70.3065 38.7149 69.5717 38.492 68.9466 38.0743C68.3216 37.6567 67.8345 37.0631 67.5468 36.3687C67.2592 35.6742 67.1839 34.91 67.3305 34.1728C67.4772 33.4355 67.8392 32.7583 68.3707 32.2268C68.9022 31.6952 69.5794 31.3333 70.3167 31.1866C71.054 31.04 71.8181 31.1152 72.5126 31.4029C73.2071 31.6905 73.8007 32.1777 74.2183 32.8027C74.6359 33.4277 74.8588 34.1625 74.8588 34.9142C74.8588 35.9222 74.4584 36.8889 73.7456 37.6017C73.0329 38.3144 72.0662 38.7149 71.0582 38.7149V38.7149Z" fill="#3DDC84"/>
</svg>
