<svg width="70" height="150" viewBox="0 0 70 150" fill="none" xmlns="http://www.w3.org/2000/svg">
<path fill-rule="evenodd" clip-rule="evenodd" d="M66.8087 149.998C67.6549 149.998 68.4664 149.651 69.0648 149.035C69.6632 148.418 69.9996 147.582 70 146.71V131.36C70 130.487 69.6638 129.651 69.0653 129.034C68.4668 128.417 67.6551 128.07 66.8087 128.07H42.1277V82.4562C42.1277 81.5839 41.7915 80.7472 41.193 80.1304C40.5945 79.5135 39.7828 79.167 38.9364 79.167H24.0434C23.197 79.167 22.3853 79.5135 21.7868 80.1304C21.1883 80.7472 20.8521 81.5839 20.8521 82.4562V146.711C20.8521 147.583 21.1883 148.42 21.7868 149.037C22.3853 149.653 23.197 150 24.0434 150H66.8087V149.998ZM31.9155 17.5438C28.9698 17.5436 26.0901 18.4438 23.6408 20.1305C21.1914 21.8173 19.2823 24.2147 18.155 27.0198C17.0276 29.8248 16.7325 32.9114 17.3071 35.8893C17.8817 38.8672 19.3002 41.6026 21.3831 43.7496C23.466 45.8965 26.1198 47.3587 29.0089 47.951C31.898 48.5434 34.8927 48.2395 37.6142 47.0776C40.3357 45.9157 42.6619 43.9481 44.2984 41.4236C45.935 38.8991 46.8085 35.9311 46.8085 32.8949C46.8085 28.8237 45.2395 24.9191 42.4465 22.0403C39.6535 19.1614 35.8654 17.544 31.9155 17.5438V17.5438ZM31.9155 7.91596e-09C25.6033 -0.00014269 19.4328 1.92899 14.1844 5.54344C8.93595 9.15789 4.84524 14.2953 2.42958 20.3061C0.0139217 26.3168 -0.618197 32.9309 0.613162 39.3119C1.84452 45.693 4.88405 51.5544 9.34739 56.1549C13.8107 60.7554 19.4974 63.8884 25.6883 65.1577C31.8791 66.427 38.2962 65.7756 44.1279 63.2859C49.9596 60.7962 54.944 56.58 58.4509 51.1704C61.9578 45.7609 63.8296 39.4009 63.8296 32.8949C63.8296 24.1708 60.4672 15.8039 54.4822 9.63495C48.4972 3.46598 40.3797 0.000191356 31.9155 7.91596e-09V7.91596e-09Z" fill="white"/>
</svg>
