<svg xmlns="http://www.w3.org/2000/svg" width="100" height="207.903" viewBox="0 0 100 207.903">
  <path id="Logo" d="M95.441,207.9A4.559,4.559,0,0,0,100,203.343V182.067a4.559,4.559,0,0,0-4.559-4.559H60.182V114.286a4.559,4.559,0,0,0-4.559-4.559H34.347a4.559,4.559,0,0,0-4.559,4.559v89.058a4.559,4.559,0,0,0,4.559,4.559H95.441ZM45.593,24.316A21.277,21.277,0,1,0,66.869,45.593,21.277,21.277,0,0,0,45.593,24.316ZM45.593,0A45.593,45.593,0,1,0,91.185,45.593,45.593,45.593,0,0,0,45.593,0Z" fill="#fff" fill-rule="evenodd"/>
</svg>